<svg viewBox="0 0 600 145" xmlns="http://www.w3.org/2000/svg" style="font-family:system-ui,sans-serif">
  <defs><marker id="va" viewBox="0 0 10 10" refX="9" refY="5" markerWidth="5" markerHeight="5" orient="auto"><path d="M0,0 L10,5 L0,10 z" fill="#d4943a"/></marker></defs>
  <rect width="100%" height="100%" fill="#1a1a1a" rx="8"/>
  <rect x="190" y="3" width="400" height="138" rx="10" fill="none" stroke="#666" stroke-width="1" stroke-dasharray="5,3"/>
  <text x="390" y="17" fill="#888" font-size="10" text-anchor="middle">fedora host</text>
  <rect x="8" y="45" width="115" height="44" rx="7" fill="none" stroke="#777" stroke-width="1.5"/>
  <text x="65" y="64" fill="#b0b0b0" font-size="11" font-weight="600" text-anchor="middle">Windows PC</text>
  <text x="65" y="79" fill="#888" font-size="9" text-anchor="middle">100.105.250.2</text>
  <rect x="205" y="25" width="140" height="40" rx="7" fill="none" stroke="#777" stroke-width="1.5"/>
  <text x="275" y="42" fill="#b0b0b0" font-size="11" font-weight="600" text-anchor="middle">Tailscale Funnel</text>
  <text x="275" y="56" fill="#888" font-size="9" text-anchor="middle">100.73.161.25:443</text>
  <line x1="155" y1="42" x2="168" y2="54" stroke="#ef5350" stroke-width="2.5"/>
  <line x1="168" y1="42" x2="155" y2="54" stroke="#ef5350" stroke-width="2.5"/>
  <path d="M123,58 L153,48" stroke="#999" stroke-width="1.5" fill="none" stroke-dasharray="4,3"/>
  <text x="145" y="37" fill="#888" font-size="9" text-anchor="middle">conflict</text>
  <rect x="205" y="85" width="140" height="44" rx="7" fill="none" stroke="#d4943a" stroke-width="2"/>
  <text x="275" y="104" fill="#d4943a" font-size="11" font-weight="600" text-anchor="middle">Caddy .homelab</text>
  <text x="275" y="119" fill="#888" font-size="9" text-anchor="middle">10.99.0.1:443 (loopback)</text>
  <path d="M123,76 L203,102" stroke="#d4943a" stroke-width="2" fill="none" marker-end="url(#va)"/>
  <rect x="420" y="85" width="155" height="44" rx="7" fill="none" stroke="#777" stroke-width="1.5"/>
  <text x="497" y="104" fill="#b0b0b0" font-size="11" font-weight="600" text-anchor="middle">Sidecar pod</text>
  <text x="497" y="119" fill="#888" font-size="9" text-anchor="middle">oauth2-proxy → app</text>
  <path d="M345,107 L418,107" stroke="#d4943a" stroke-width="2" fill="none" marker-end="url(#va)"/>
</svg>
